<?xml version="1.0" standalone="no"?>
<!DOCTYPE svg PUBLIC "-//W3C//DTD SVG 20010904//EN"
 "http://www.w3.org/TR/2001/REC-SVG-20010904/DTD/svg10.dtd">
<svg version="1.0" xmlns="http://www.w3.org/2000/svg"
 width="356.000000pt" height="321.000000pt" viewBox="0 0 356.000000 321.000000"
 preserveAspectRatio="xMidYMid meet">

<g transform="translate(0.000000,321.000000) scale(0.100000,-0.100000)"
fill="#000000" stroke="none">
<path d="M2630 2890 c0 -13 5 -20 13 -17 6 2 12 10 12 17 0 7 -6 15 -12 18 -8
2 -13 -5 -13 -18z"/>
<path d="M2401 2702 c-17 -42 -47 -62 -88 -62 -30 0 -33 3 -33 31 l0 30 -43
-35 c-52 -42 -114 -71 -187 -87 -57 -12 -92 -39 -122 -97 -15 -28 -22 -32 -58
-32 -91 0 -163 -75 -162 -169 0 -90 49 -150 138 -172 27 -7 52 -17 56 -23 5
-7 8 -5 8 5 0 10 16 21 41 29 96 32 135 179 69 263 -27 34 -25 46 7 58 59 22
117 13 177 -26 57 -38 58 -41 82 -137 6 -29 18 -36 29 -18 9 15 52 12 69 -6
33 -32 -13 -114 -64 -114 -23 0 -30 -7 -44 -45 -11 -28 -37 -63 -73 -95 -31
-28 -53 -53 -50 -57 11 -10 70 40 98 85 26 41 29 43 30 21 1 -18 3 -15 8 10 5
29 14 39 55 60 27 14 72 47 100 72 l51 47 -2 66 c-2 47 3 78 17 108 27 59 25
68 -11 68 -29 0 -31 2 -25 28 3 15 9 43 13 62 6 34 6 35 -14 18 -21 -20 -58
-24 -68 -8 -3 5 -1 27 5 47 7 21 10 54 8 73 l-3 35 -14 -33z m-493 -284 c5 -7
8 -38 6 -68 -1 -30 -1 -48 2 -40 3 8 8 22 11 30 4 8 7 18 7 22 2 12 16 22 16
11 0 -6 7 -13 15 -17 13 -4 13 -2 5 14 -17 31 -11 35 15 10 44 -41 53 -117 21
-175 -9 -18 -11 -17 -17 15 l-6 35 -2 -42 c-1 -48 -21 -66 -83 -77 -69 -12
-144 42 -162 117 -10 40 9 99 42 130 42 41 110 59 130 35z"/>
<path d="M1992 2285 c0 -16 2 -22 5 -12 2 9 2 23 0 30 -3 6 -5 -1 -5 -18z"/>
<path d="M1935 2275 c4 -38 15 -43 15 -7 0 18 -4 32 -9 32 -5 0 -8 -11 -6 -25z"/>
<path d="M1897 2275 c-4 -8 -2 -17 2 -20 5 -2 11 4 14 15 6 23 -8 27 -16 5z"/>
<path d="M1892 2180 c0 -19 2 -27 5 -17 2 9 2 25 0 35 -3 9 -5 1 -5 -18z"/>
<path d="M386 2561 c-11 -18 6 -42 28 -39 29 4 29 42 -1 46 -11 2 -24 -1 -27
-7z"/>
<path d="M2145 2370 c10 -11 20 -20 23 -20 3 0 -3 9 -13 20 -10 11 -20 20 -23
20 -3 0 3 -9 13 -20z"/>
<path d="M1126 2367 c3 -10 9 -15 12 -12 3 3 0 11 -7 18 -10 9 -11 8 -5 -6z"/>
<path d="M2073 2260 c2 -8 14 -16 28 -17 19 -1 20 -1 4 4 -11 3 -24 10 -28 17
-6 7 -7 6 -4 -4z"/>
<path d="M1681 2098 c0 -9 -4 -25 -7 -35 -5 -17 -5 -17 6 0 6 10 9 25 7 35 -4
15 -5 15 -6 0z"/>
<path d="M1994 2096 c-3 -8 -4 -23 -1 -33 3 -11 5 -7 6 11 1 21 5 27 16 22 8
-3 15 -1 15 4 0 16 -30 12 -36 -4z"/>
<path d="M1659 1983 l-56 -58 24 -22 c26 -26 31 -19 6 9 -16 18 -14 21 37 73
30 30 52 55 49 55 -2 0 -30 -26 -60 -57z"/>
<path d="M2000 2030 c0 -6 7 -10 15 -10 8 0 15 2 15 4 0 2 -7 6 -15 10 -8 3
-15 1 -15 -4z"/>
<path d="M2292 1970 c0 -14 2 -19 5 -12 2 6 2 18 0 25 -3 6 -5 1 -5 -13z"/>
<path d="M2300 1920 c0 -23 -64 -80 -90 -80 -15 0 -23 11 -32 43 l-11 43 -61
-29 c-34 -16 -79 -42 -101 -57 l-41 -28 3 -114 c2 -80 10 -139 27 -203 13 -49
35 -134 49 -187 15 -54 28 -125 29 -158 3 -60 3 -60 38 -70 19 -5 42 -10 51
-10 28 0 141 80 217 153 l73 71 -5 210 c-2 116 -2 224 1 239 8 40 46 63 80 48
40 -18 40 -5 -1 34 -49 46 -108 80 -173 99 -50 14 -53 14 -53 -4z"/>
<path d="M1250 1880 c0 -5 5 -10 11 -10 5 0 7 5 4 10 -3 6 -8 10 -11 10 -2 0
-4 -4 -4 -10z"/>
<path d="M2897 1883 c-11 -10 -8 -41 4 -49 6 -3 18 1 27 9 13 13 13 19 2 31
-14 17 -23 20 -33 9z"/>
<path d="M1742 1845 c0 -16 2 -22 5 -12 2 9 2 23 0 30 -3 6 -5 -1 -5 -18z"/>
<path d="M1622 1760 c0 -14 2 -19 5 -12 2 6 2 18 0 25 -3 6 -5 1 -5 -13z"/>
<path d="M1751 1744 c0 -11 3 -14 6 -6 3 7 2 16 -1 19 -3 4 -6 -2 -5 -13z"/>
<path d="M1623 1640 c0 -47 2 -66 4 -42 2 23 2 61 0 85 -2 23 -4 4 -4 -43z"/>
<path d="M1761 1654 c0 -11 3 -14 6 -6 3 7 2 16 -1 19 -3 4 -6 -2 -5 -13z"/>
<path d="M410 1601 c-13 -25 -4 -48 21 -56 26 -8 49 11 49 40 0 37 -52 49 -70
16z"/>
<path d="M1772 1535 c0 -16 2 -22 5 -12 2 9 2 23 0 30 -3 6 -5 -1 -5 -18z"/>
<path d="M1621 1524 c0 -11 3 -14 6 -6 3 7 2 16 -1 19 -3 4 -6 -2 -5 -13z"/>
<path d="M1632 1460 c0 -14 2 -19 5 -12 2 6 2 18 0 25 -3 6 -5 1 -5 -13z"/>
<path d="M1486 1441 c-4 -5 -2 -12 3 -15 5 -4 12 -2 15 3 4 5 2 12 -3 15 -5 4
-12 2 -15 -3z"/>
<path d="M1640 1423 c0 -7 10 -22 23 -35 12 -13 17 -17 11 -8 -6 8 -16 24 -22
35 -6 11 -12 15 -12 8z"/>
<path d="M2602 1315 c0 -16 2 -22 5 -12 2 9 2 23 0 30 -3 6 -5 -1 -5 -18z"/>
<path d="M3172 1288 c2 -13 10 -23 18 -23 8 0 16 10 18 23 3 17 -2 22 -18 22
-16 0 -21 -5 -18 -22z"/>
<path d="M2559 1172 c-12 -30 -197 -134 -299 -167 -44 -15 -51 -20 -35 -26 57
-22 233 4 316 46 l28 15 4 -38 c2 -20 2 10 0 68 -4 101 -7 121 -14 102z"/>
<path d="M1655 1000 c-4 -7 -3 -16 3 -22 14 -14 45 -2 40 15 -6 16 -34 21 -43
7z"/>
<path d="M2030 970 c-6 -11 -8 -20 -6 -20 3 0 10 9 16 20 6 11 8 20 6 20 -3 0
-10 -9 -16 -20z"/>
<path d="M1999 923 c-13 -16 -12 -17 4 -4 16 13 21 21 13 21 -2 0 -10 -8 -17
-17z"/>
<path d="M2090 895 c-24 -25 -40 -45 -34 -45 5 0 15 9 22 21 7 12 16 18 19 15
3 -3 0 -12 -7 -21 -7 -8 -10 -15 -6 -15 3 0 18 18 32 40 15 22 31 37 37 33 6
-3 7 -1 3 5 -11 19 -19 15 -66 -33z"/>
<path d="M1922 898 c-15 -15 -15 -38 0 -38 6 0 8 3 5 7 -4 3 1 11 10 18 9 7
12 14 6 18 -5 3 -15 1 -21 -5z"/>
<path d="M2030 895 c-7 -8 -19 -15 -27 -15 -8 0 -12 -4 -8 -10 8 -13 28 -4 43
20 14 24 10 26 -8 5z"/>
<path d="M1957 863 c-9 -2 -15 -9 -12 -14 9 -14 22 -11 29 6 3 8 4 14 3 14 -1
-1 -10 -3 -20 -6z"/>
<path d="M1859 843 c-13 -16 -12 -17 4 -4 16 13 21 21 13 21 -2 0 -10 -8 -17
-17z"/>
<path d="M195 840 c-7 -12 2 -30 16 -30 5 0 9 9 9 20 0 21 -15 27 -25 10z"/>
<path d="M1789 783 l-24 -28 28 24 c25 23 32 31 24 31 -2 0 -14 -12 -28 -27z"/>
<path d="M2613 785 c-49 -70 -50 -71 -72 -57 -12 7 -21 9 -21 4 0 -4 -16 -25
-35 -47 -20 -21 -34 -40 -31 -42 2 -2 15 10 30 27 21 26 29 29 45 20 24 -12
71 -72 71 -89 0 -7 15 4 34 23 31 34 37 36 94 36 99 0 247 58 227 89 -2 5 -43
11 -90 15 -47 4 -106 13 -132 20 -98 28 -101 28 -120 1z"/>
<path d="M1989 753 c-13 -16 -12 -17 4 -4 16 13 21 21 13 21 -2 0 -10 -8 -17
-17z"/>
<path d="M1685 688 l-50 -53 53 50 c48 46 57 55 49 55 -1 0 -25 -24 -52 -52z"/>
<path d="M1912 673 c-42 -51 -92 -128 -92 -140 0 -5 14 15 32 42 17 28 49 71
70 98 22 26 38 47 35 47 -3 0 -23 -21 -45 -47z"/>
<path d="M2404 608 l-19 -23 23 19 c21 18 27 26 19 26 -2 0 -12 -10 -23 -22z"/>
<path d="M2344 558 l-19 -23 23 19 c21 18 27 26 19 26 -2 0 -12 -10 -23 -22z"/>
<path d="M2284 508 l-19 -23 23 19 c21 18 27 26 19 26 -2 0 -12 -10 -23 -22z"/>
<path d="M1806 505 c-9 -26 -7 -32 5 -12 6 10 9 21 6 23 -2 3 -7 -2 -11 -11z"/>
<path d="M2226 465 c-11 -8 -15 -15 -9 -15 6 0 16 7 23 15 16 19 11 19 -14 0z"/>
<path d="M1792 450 c0 -14 2 -19 5 -12 2 6 2 18 0 25 -3 6 -5 1 -5 -13z"/>
<path d="M1785 361 c2 -35 9 -68 16 -75 9 -8 10 -7 4 9 -4 11 -11 45 -16 75
l-8 55 4 -64z"/>
</g>
</svg>
