<?xml version="1.0" standalone="no"?>
<!DOCTYPE svg PUBLIC "-//W3C//DTD SVG 20010904//EN"
 "http://www.w3.org/TR/2001/REC-SVG-20010904/DTD/svg10.dtd">
<svg version="1.0" xmlns="http://www.w3.org/2000/svg"
 width="136.000000pt" height="156.000000pt" viewBox="0 0 136.000000 156.000000"
 preserveAspectRatio="xMidYMid meet">

<g transform="translate(0.000000,156.000000) scale(0.100000,-0.100000)"
fill="#000000" stroke="none">
<path d="M583 1246 c-140 -32 -212 -106 -213 -218 l0 -48 80 0 79 0 11 39 c15
55 57 88 125 96 96 12 173 -13 200 -65 21 -41 19 -108 -5 -148 -23 -38 -36
-44 -235 -112 -81 -27 -159 -59 -175 -70 -16 -11 -41 -45 -55 -75 -25 -50 -27
-61 -23 -168 3 -104 5 -117 30 -154 20 -30 46 -50 95 -75 67 -33 69 -33 208
-33 139 0 141 0 208 33 50 25 75 45 95 75 l27 41 3 350 c3 397 1 409 -69 469
-21 19 -63 42 -92 51 -72 23 -217 29 -294 12z m281 -821 c-21 -45 -55 -65
-119 -72 -123 -13 -196 23 -210 105 -18 107 23 150 198 211 70 24 131 48 135
55 4 6 8 -51 10 -127 2 -110 -1 -145 -14 -172z"/>
</g>
</svg>
